Coordinates
version=1
nRows=14
nColumns=24
inDegrees=yes

Units are S.I. units (second, meters, Newtons, ...)
Angles are in degrees.

endheader
time	pelvis_tilt	pelvis_list	pelvis_rotation	pelvis_tx	pelvis_ty	pelvis_tz	hip_flexion_r	hip_adduction_r	hip_rotation_r	knee_angle_r	ankle_angle_r	subtalar_angle_r	mtp_angle_r	hip_flexion_l	hip_adduction_l	hip_rotation_l	knee_angle_l	ankle_angle_l	subtalar_angle_l	mtp_angle_l	lumbar_extension	lumbar_bending	lumbar_rotation
      5.89000000	     -1.18852469	     -0.95804980	      2.46664993	      1.23868227	      0.67986774	     -0.11007523	     -1.14789516	      7.88657890	     -9.87871027	     -9.79504133	     17.90452491	     -3.36511763	      0.00000000	     26.25826416	      0.29096215	      7.51768888	    -31.36735976	      3.93661003	    -27.37013485	      0.00000000	     -8.52271925	      3.53929572	      7.03698246
      5.90000000	     -1.18718166	     -1.26412542	      1.65375375	      1.24635721	      0.67905858	     -0.10919055	     -2.02957688	      8.25222749	     -9.32043264	     -9.51677333	     18.18087474	     -3.04110249	      0.00000000	     26.15389094	     -0.34181970	      7.35781734	    -27.97126029	      4.66600499	    -24.57832028	      0.00000000	     -8.60180032	      3.85493822	      7.61807280
      5.91000000	     -1.20375505	     -1.57720599	      0.84356081	      1.25415278	      0.67814993	     -0.10832525	     -2.93558359	      8.60230831	     -8.74914049	     -9.20299654	     18.44125714	     -2.71976705	      0.00000000	     26.01202163	     -0.98086933	      7.19987515	    -24.57188070	      5.21389187	    -21.71979456	      0.00000000	     -8.65047623	      4.17533618	      8.17497694
      5.92000000	     -1.23097964	     -1.84852860	      0.00962056	      1.26209465	      0.67718197	     -0.10746649	     -3.87333088	      8.87585359	     -8.16844203	     -8.86335131	     18.68532232	     -2.34633376	      0.00000000	     25.78747342	     -1.57078689	      7.12037087	    -21.12685254	      5.52789134	    -19.14520895	      0.00000000	     -8.67510107	      4.43350105	      8.77584346
      5.93000000	     -1.31905669	     -2.17427177	     -0.76066863	      1.27013502	      0.67609247	     -0.10666846	     -4.77848011	      9.18400832	     -7.63892154	     -8.49784598	     18.93849507	     -1.96155893	      0.00000000	     25.62623453	     -2.20260820	      7.05253107	    -17.76932652	      5.64370905	    -16.61819524	      0.00000000	     -8.62564427	      4.77987628	      9.20514186
      5.94000000	     -1.43730509	     -2.43466827	     -1.59256478	      1.27833762	      0.67496103	     -0.10585087	     -5.69433617	      9.38378581	     -7.05713058	     -8.10946580	     19.15406182	     -1.47566312	      0.00000000	     25.38015126	     -2.77310401	      7.16535125	    -14.36432628	      5.48975977	    -14.91656739	      0.00000000	     -8.52946636	      5.03448432	      9.72518569
      5.95000000	     -1.64662310	     -2.77504166	     -2.38451103	      1.28660497	      0.67369259	     -0.10508195	     -6.52173342	      9.64717680	     -6.47695047	     -7.74189726	     19.38009236	     -1.00527704	      0.00000000	     25.23498170	     -3.42153241	      7.35994367	    -11.09969649	      5.19816010	    -13.68062690	      0.00000000	     -8.33769195	      5.40888555	     10.17524993
      5.96000000	     -1.79192660	     -2.98005217	     -3.19213710	      1.29504524	      0.67247438	     -0.10428163	     -7.45946495	      9.73480162	     -5.91516951	     -7.32297475	     19.53848018	     -0.50563362	      0.00000000	     25.03402296	     -3.97428676	      7.22155669	     -8.05700318	      5.08476128	    -12.46185548	      0.00000000	     -8.21007991	      5.59481183	     10.63460740
      5.97000000	     -2.03980012	     -3.21568985	     -4.02032516	      1.30353939	      0.67114646	     -0.10349317	     -8.28468505	      9.83451075	     -5.26218011	     -6.94347779	     19.67557496	     -0.05399674	      0.00000000	     25.00666315	     -4.56560607	      6.80727885	     -5.32470357	      4.97012245	    -11.63748122	      0.00000000	     -7.98115987	      5.83696031	     11.12134963
      5.98000000	     -2.24672168	     -3.40776410	     -4.84781069	      1.31211159	      0.66986599	     -0.10272174	     -9.16503321	      9.86780313	     -4.53465086	     -6.54984590	     19.68365110	      0.21044586	      0.00000000	     25.05559186	     -5.09555269	      5.72280943	     -3.02756610	      5.09379453	    -10.54709651	      0.00000000	     -7.82311463	      6.02122388	     11.57988836
      5.99000000	     -2.51645911	     -3.47158755	     -5.71042124	      1.32082316	      0.66853948	     -0.10200469	     -9.96003869	      9.73838898	     -3.75632099	     -6.20126941	     19.75581566	      0.49620623	      0.00000000	     25.21447425	     -5.45581486	      4.31260434	     -1.07443063	      5.19939248	     -9.94186109	      0.00000000	     -7.57692538	      6.06731416	     12.12790012
      6.00000000	     -2.70305371	     -3.54600355	     -6.54431221	      1.32959110	      0.66731675	     -0.10138579	    -10.82781659	      9.59395642	     -2.96505301	     -5.86904573	     19.59182726	      0.53931319	      0.00000000	     25.44589375	     -5.74445865	      2.14549246	      0.32962750	      5.58089742	     -8.79275865	      0.00000000	     -7.46766197	      6.13559143	     12.62085078
      6.01000000	     -2.97657669	     -3.53788098	     -7.39431839	      1.33852075	      0.66600581	     -0.10087757	    -11.50922942	      9.33026730	     -2.35302673	     -5.71622061	     19.61418847	      0.83622387	      0.00000000	     25.70807643	     -5.89529334	      0.33738770	      1.53150122	      5.46851565	     -8.88337118	      0.00000000	     -7.23367692	      6.13256212	     13.19081793
      6.02000000	     -3.01854002	     -3.44457559	     -8.17607755	      1.34762857	      0.66492700	     -0.10045836	    -12.48139297	      8.94924099	     -1.56866013	     -5.43906581	     19.32012196	      0.73737176	      0.00000000	     25.91112568	     -5.86597313	     -2.27075838	      2.06555827	      5.95347133	     -7.76911532	      0.00000000	     -7.26336690	      5.99041203	     13.68186542
